<?xml version="1.0" encoding="utf-8"?>
<!-- Generator: Adobe Illustrator 23.0.1, SVG Export Plug-In . SVG Version: 6.00 Build 0)  -->
<svg version="1.1" id="Layer_1" xmlns="http://www.w3.org/2000/svg" xmlns:xlink="http://www.w3.org/1999/xlink" x="0px" y="0px"
	 viewBox="0 0 900 900" style="enable-background:new 0 0 900 900;" xml:space="preserve">
<style type="text/css">
	.st0{opacity:0.2;}
	.st1{fill:none;stroke:#C95670;stroke-width:3.8727;stroke-linecap:round;stroke-linejoin:round;stroke-miterlimit:10;}
	.st2{opacity:0.2;fill:#FFFFFF;stroke:#C95670;stroke-miterlimit:10;}
	.st3{fill:#FFFFFF;stroke:#C95670;stroke-miterlimit:10;}
	.st4{fill:none;stroke:#C95670;stroke-width:2.6648;stroke-linecap:round;stroke-linejoin:round;stroke-miterlimit:10;}
	.st5{opacity:0.2;fill:none;stroke:#C95670;stroke-width:3.8727;stroke-linecap:round;stroke-linejoin:round;stroke-miterlimit:10;}
</style>
<g class="st0">
	<path class="st1" d="M654.9,649.5"/>
	<path class="st1" d="M639,633.6"/>
	<path class="st1" d="M654.9,617.8"/>
	<path class="st1" d="M654.9,617.8c0,8.8-7.1,15.9-15.9,15.9c8.8,0,15.9,7.1,15.9,15.9c0-8.8,7.1-15.9,15.9-15.9
		C662,633.6,654.9,626.5,654.9,617.8z"/>
	<path class="st1" d="M670.8,633.6"/>
</g>
<polygon class="st2" points="511,234.3 537.3,187.7 567.9,203.7 594.5,152.7 631.7,171.2 646.1,140.9 635,140.4 658,119.8 
	656.7,150.7 649.3,142.4 633.3,175.9 596,157.4 569.3,208.4 538.7,192.3 514,236 "/>
<g class="st0">
	<path class="st1" d="M629.7,783.5c1.2-7.2,2.5-15.1,3.4-20.5"/>
	<path class="st1" d="M643.3,764.4c-0.9,5.3-2.2,13.2-3.4,20.5"/>
	<polygon class="st1" points="617.5,793.6 629.7,783.9 639.8,785.6 647.5,798.6 	"/>
	<g>
		<path class="st1" d="M679.3,707c9.9,1.6,26.7,4.4,26.7,4.4l-1,3.8c-0.1,0.5-3.1,11.6-9.8,22.3c-9.1,14.5-20.8,21.2-33.7,19.5
			 M668.4,750c16.5-2.4,25.5-24,28.6-32.8c0,0-13.2-2.2-18.7-3.1"/>
	</g>
	<g>
		<path class="st1" d="M616.1,703.8c-5.4-0.9-18.7-3.1-18.7-3.1c0,9.5,1.7,33.5,17.3,40.7 M616.7,749.5c-12.1-3-20.4-13-24.2-29
			c-2.9-12.3-2.1-23.8-2.1-24.3l0.3-3.9c0,0,16.3,2.7,26.2,4.3"/>
	</g>
	<path class="st1" d="M619.3,688.1c-1.9,10.8-6.1,37.2-5.2,45.9c1.8,17.8,11.3,26.9,23,28.8l1.2,0.2l1.2,0.2
		c11.7,1.9,23.6-3.6,31.1-19.9c3.7-8.1,8.5-35.4,10.2-45.9"/>
	<path class="st1" d="M648.1,798.7l-30.6-5.1c-4.4-0.7-8.6,2.3-9.4,6.7l46.6,7.7C655.5,803.6,652.5,799.4,648.1,798.7z"/>
	
		<rect x="615.1" y="790.5" transform="matrix(0.1634 -0.9866 0.9866 0.1634 -280.7361 1305.1434)" class="st1" width="28.2" height="55.2"/>
	
		<rect x="622" y="803.9" transform="matrix(0.1634 -0.9866 0.9866 0.1634 -301.0507 1317.3018)" class="st1" width="8.4" height="64.5"/>
	<path class="st1" d="M686.9,693.3c-0.4,2.6-2.9,4.3-5.4,3.9l-61.4-10.2c-2.6-0.4-4.3-2.9-3.9-5.4l0,0c0.4-2.6,2.9-4.3,5.4-3.9
		l61.4,10.2C685.6,688.3,687.4,690.8,686.9,693.3L686.9,693.3z"/>
</g>
<g class="st0">
	<path class="st1" d="M528.3,325.8c4.1-6.1,8.6-12.7,11.6-17.2"/>
	<path class="st1" d="M548.6,314.1c-3,4.4-7.5,11.1-11.6,17.2"/>
	<polygon class="st1" points="513,329.9 528,326.2 536.5,331.9 538.1,347 	"/>
	<g>
		<path class="st1" d="M605.3,277c8.3,5.6,22.4,15.2,22.4,15.2l-2.5,3c-0.3,0.4-7.7,9.3-18.2,16.2c-14.3,9.4-27.7,10.6-38.8,3.6
			 M577.4,311.5c16,4.7,33.2-11.1,39.7-17.9c0,0-11.1-7.5-15.7-10.6"/>
	</g>
	<g>
		<path class="st1" d="M549.2,247.7c-4.5-3.1-15.7-10.6-15.7-10.6c-3.9,8.7-12.4,31.2-1.2,44.2 M530.6,289.5
			c-9.7-7.8-13.1-20.3-9.9-36.5c2.5-12.4,8-22.5,8.2-22.9l1.9-3.4c0,0,13.7,9.3,22,14.9"/>
	</g>
	<path class="st1" d="M558.6,234.8c-6.2,9-21.1,31.3-23.9,39.5c-5.7,16.9-1,29.1,8.9,35.8l1,0.7l1,0.7c9.9,6.7,23,6.5,36.5-5.1
		c6.8-5.8,22.5-28.6,28.4-37.5"/>
	<path class="st1" d="M538.6,347.3L513,329.9c-3.7-2.5-8.8-1.5-11.3,2.2l39.1,26.5C543.3,354.9,542.3,349.8,538.6,347.3z"/>
	
		<rect x="499.2" y="329.4" transform="matrix(0.5604 -0.8282 0.8282 0.5604 -70.0223 582.1392)" class="st1" width="28.2" height="55.2"/>
	
		<rect x="498.9" y="339.9" transform="matrix(0.5604 -0.8283 0.8283 0.5604 -87.0861 580.311)" class="st1" width="8.4" height="64.5"/>
	<path class="st1" d="M617.9,267.8c-1.5,2.2-4.4,2.7-6.6,1.3l-51.5-34.9c-2.2-1.5-2.7-4.4-1.3-6.6l0,0c1.5-2.2,4.4-2.7,6.6-1.3
		l51.5,34.8C618.8,262.7,619.4,265.6,617.9,267.8L617.9,267.8z"/>
</g>
<g class="st0">
	<path class="st1" d="M80.6,43.7l-53.9,94.1l164.9,94.5L80.6,43.7z M53.3,130.5l27.5-48.1l56.8,96.4L53.3,130.5z"/>
	<line class="st1" x1="46.6" y1="137.5" x2="41.8" y2="145.5"/>
	<line class="st1" x1="60.8" y1="145.2" x2="56" y2="153.2"/>
	<line class="st1" x1="74.4" y1="153" x2="69.6" y2="161"/>
	<line class="st1" x1="88.5" y1="160.7" x2="83.7" y2="168.8"/>
	<line class="st1" x1="102.8" y1="169.9" x2="98.1" y2="177.9"/>
	<line class="st1" x1="117" y1="177.6" x2="112.2" y2="185.7"/>
	<line class="st1" x1="130.6" y1="185.4" x2="125.8" y2="193.4"/>
	<line class="st1" x1="144.7" y1="193.1" x2="139.9" y2="201.2"/>
	<line class="st1" x1="159.7" y1="201.9" x2="154.9" y2="210"/>
</g>
<g class="st0">
	<g>
		<path class="st3" d="M199.2,550.6l-1,45c0,0-5.3-1.2-9.8,2.1c-6.4,4.7-4.5,11.1-0.3,12.7c6.1,2.4,13.9-1.9,14.1-9.3
			c0.3-11,1-44.1,1-44.1l30.2-4.9l-0.3,37.2c0,0-4.7-1.2-9.7,1.6c-8.2,4.7-4.6,15.1,2.9,14.2c3.8-0.5,8.4-3.6,9.3-10.2
			c1.7-12.7,1.7-51.1,1.7-51.1L199.2,550.6z"/>
	</g>
</g>
<g class="st0">
	<g>
		<g>
			<path class="st1" d="M209.2,823.2c-0.1-3.7,1.3-7.5,4.9-9.2l0.7-0.3c4-1.9,8.7,0.5,11.4,3.7"/>
			<path class="st1" d="M59.4,749.9c0.2-3.4,0.6-10.6,0.6-10.6s11.8-3.7,18.2-8.5c19.9-14.8,39-32.6,64.4-35.7
				c10.6-1.3,16.5,3.5,19.1,6.7"/>
			<path class="st1" d="M265.3,654.8c-2.8-2.1-8.1-6.1-8.1-6.1s-9.8,9.5-17.5,11.4c-24.1,5.8-51.3,4.8-70,22.3
				c-7.4,7-7.8,14.1-7.2,18.3"/>
			<path class="st1" d="M274.2,657.3l-4.8-3.9L180,702.8c-4.5-4.5-15.1-2.1-17.6-1l-0.7,0.3c-3.2,1.8-9.5,7.1-8.9,13.4l-96.9,36.1
				l-0.2,6.2"/>
			<path class="st1" d="M159.7,719.5c-0.1-3.7,2-7.3,5.6-8.9l0.7-0.3c4-1.9,8.7-0.7,11.4,2.4"/>
		</g>
		<polygon class="st1" points="227.3,819.2 316.7,767.4 274.2,657.3 177.7,712.4 		"/>
		<polygon class="st1" points="113,861 210.8,826.9 160.5,720.5 55.7,757.8 		"/>
	</g>
	<g>
		<polygon class="st1" points="203.1,731.3 210.1,746.3 279.4,707.5 272.1,692 		"/>
		<line class="st1" x1="215.6" y1="756.5" x2="284.8" y2="717.6"/>
		<line class="st1" x1="242.1" y1="764.1" x2="273.7" y2="745.8"/>
	</g>
</g>
<g class="st0">
	<g>
		<g>
			<path class="st1" d="M649.2,527.2c-0.1-3.7,1.3-7.5,4.9-9.2l0.7-0.3c4-1.9,8.7,0.5,11.4,3.7"/>
			<path class="st1" d="M499.4,453.9c0.2-3.4,0.6-10.6,0.6-10.6s11.8-3.7,18.2-8.5c19.9-14.8,39-32.6,64.4-35.7
				c10.6-1.3,16.5,3.5,19.1,6.7"/>
			<path class="st1" d="M705.3,358.8c-2.8-2.1-8.1-6.1-8.1-6.1s-9.8,9.5-17.5,11.4c-24.1,5.8-51.3,4.8-70,22.3
				c-7.4,7-7.8,14.1-7.2,18.3"/>
			<path class="st1" d="M714.2,361.3l-4.8-3.9L620,406.8c-4.5-4.5-15.1-2.1-17.6-1l-0.7,0.3c-3.2,1.8-9.5,7.1-8.9,13.4l-96.9,36.1
				l-0.2,6.2"/>
			<path class="st1" d="M599.7,423.5c-0.1-3.7,2-7.3,5.6-8.9l0.7-0.3c4-1.9,8.7-0.7,11.4,2.4"/>
		</g>
		<polygon class="st1" points="667.3,523.2 756.7,471.4 714.2,361.3 617.7,416.4 		"/>
		<polygon class="st1" points="553,565 650.8,530.9 600.5,424.5 495.7,461.8 		"/>
	</g>
	<g>
		<polygon class="st1" points="643.1,435.3 650.1,450.3 719.4,411.5 712.1,396 		"/>
		<line class="st1" x1="655.6" y1="460.5" x2="724.8" y2="421.6"/>
		<line class="st1" x1="682.1" y1="468.1" x2="713.7" y2="449.8"/>
	</g>
</g>
<path class="st2" d="M406.2,79.8l-26-8.2c-1.3-0.4-2.6,0.3-3,1.6c-0.4,1.3,0.3,2.6,1.6,3l2.1,0.7l-25.7,81.6
	c-1.9,6,1.5,12.4,7.5,14.3c6,1.9,12.4-1.5,14.3-7.5l25.7-81.6l2.1,0.7c1.3,0.4,2.6-0.3,3-1.6C408.2,81.5,407.4,80.2,406.2,79.8z
	 M383.9,128.1L372.7,164c-1.1,3.6-5,5.7-8.7,4.5c-3.6-1.1-5.7-5-4.5-8.7l11.3-35.9l14.5-46.3l13.2,4.2L383.9,128.1z"/>
<g class="st0">
	<path class="st1" d="M110,452.5l-35.3-17l1-2.1c0.9-1.9,0.1-4.1-1.8-5c-1.9-0.9-4.1-0.1-5,1.8l-10.2,21.3c-0.9,1.9-0.1,4.1,1.8,5
		c1.9,0.9,4.1,0.1,5-1.8l1-2.1l35.3,17c-2.2,14.1,4.8,28.6,18.4,35.1c16.5,7.9,36.3,1,44.2-15.5c7.9-16.5,1-36.3-15.5-44.2
		C135.3,438.4,119.6,441.9,110,452.5z"/>
	<path class="st1" d="M144.1,450.7c-5.3-5.1-14.6-2.8-17.4,2.9c-1,2.1-1.4,4.4-1.2,6.6c-2.4,0.2-4.7,1.7-5.8,4
		c-0.9,1.8-0.9,3.7-0.3,5.4c-1.9,0.9-3.5,2.5-4.5,4.6c-2.1,4.4-0.7,9.6,3.2,12.3c-3.8,3.8-0.1,10.2,3.7,12c0,0-3.2,5.4-1.6,6.1
		c16.5,7.9,36.3,1,44.2-15.5c7.9-16.5,1-36.3-15.5-44.2C147.2,444.1,144.1,450.7,144.1,450.7z"/>
</g>
<g class="st0">
	<g>
		<path class="st1" d="M485.7,82.2c2,8.2,6.2,15.9,12.6,22.2c18.2,17.6,47.2,17.2,64.8-1c0.6-0.7,1.3-1.3,1.8-2"/>
		<path class="st1" d="M573.4,86.9c5.8-16.4,2-35.4-11.3-48.3c-18.2-17.6-47.2-17.2-64.8,1c-7.6,7.8-11.8,17.6-12.7,27.6"/>
		<path class="st1" d="M492.6,45.4c-2.7,3.8-4.7,7.9-6,12.2c-8.1-0.3-13.2,0.5-13.7,2.5c-0.4,2,4,4.8,11.6,8c1.2,0.5,2.5,1,3.9,1.5
			c10.3,3.9,24.9,8,41.3,11.6c12.5,2.7,24.3,4.7,34,5.8c3.3,0.4,6.4,0.7,9.3,0.8c10.2,0.7,16.8,0,17.3-2.3c0.5-2.2-5.1-5.5-14.5-9.1
			c0.5-4.5,0.3-9.1-0.5-13.5c27.6,9.6,45.4,20.8,43.7,28.9c-1.8,8.2-23.1,10.9-52.7,8.1c-2.4-0.2-4.8-0.5-7.3-0.8
			c-10-1.2-20.7-3-31.9-5.5c-14.4-3.1-27.9-6.9-39.6-11c-0.7-0.2-1.3-0.5-1.9-0.7c-26.2-9.4-43-20.2-41.3-28.1
			C446,46.1,465.3,43.2,492.6,45.4z"/>
	</g>
</g>
<g class="st0">
	<g>
		<path class="st1" d="M353.6,399.3c2,8.2,6.2,15.9,12.6,22.2c18.2,17.6,47.2,17.2,64.8-1c0.6-0.7,1.3-1.3,1.8-2"/>
		<path class="st1" d="M441.4,404c5.8-16.4,2-35.4-11.3-48.3c-18.2-17.6-47.2-17.2-64.8,1c-7.6,7.8-11.8,17.6-12.7,27.6"/>
		<path class="st1" d="M360.5,362.5c-2.7,3.8-4.7,7.9-6,12.2c-8.1-0.3-13.2,0.5-13.7,2.5c-0.4,2,4,4.8,11.6,8c1.2,0.5,2.5,1,3.9,1.5
			c10.3,3.9,24.9,8,41.3,11.6c12.5,2.7,24.3,4.7,34,5.8c3.3,0.4,6.4,0.7,9.3,0.8c10.2,0.7,16.8,0,17.3-2.3c0.5-2.2-5.1-5.5-14.5-9.1
			c0.5-4.5,0.3-9.1-0.5-13.5c27.6,9.6,45.4,20.8,43.7,28.9c-1.8,8.2-23.1,10.9-52.7,8.1c-2.4-0.2-4.8-0.5-7.3-0.8
			c-10-1.2-20.7-3-31.9-5.5c-14.4-3.1-27.9-6.9-39.6-11c-0.7-0.2-1.3-0.5-1.9-0.7c-26.2-9.4-43-20.2-41.3-28.1
			C313.9,363.2,333.3,360.4,360.5,362.5z"/>
	</g>
</g>
<g class="st0">
	<path class="st1" d="M733.6,615.1c-2.1-4.8-10.5-5.7-15.3-7.5c-3.2-1.2-8.3-2.7-12.1-5.1c-3.4,23.4,5.5,45.8,22.1,60.9
		c0.6-5.8-1-13.1-1-17.6C727.1,635.5,738.2,625.7,733.6,615.1z"/>
	<path class="st1" d="M838.6,622.6c-1.2,0.7-0.6,1.6-1.1,2.6c-1.2,2.2-1.7,5-2.8,7.1c-3.3,6-6.5,4-13.1,5.7c-7,1.8-6.8,6.2-4.2,11.8
		c2.4,5.2,3.5,10.2,4,15.9c0.1,0.7,0.3,1.9,0.5,3.1c15.1-10.5,26.1-26.4,29.6-45.3C846.9,622.5,840.7,621.2,838.6,622.6z"/>
	<g>
		<g>
			<path class="st1" d="M821.9,553.6c-7.2,1.6-14.4,2.5-16,2.6c-9.9,0.8-30.4-3.2-31,11.1c-0.2,5.8,3.1,11.7,2.1,17.4
				c-0.6,3.2-1.5,3.5-4.6,4.4c-3,0.8-6,1.1-9.1,1.3c-1.2,0.1-4.5-0.1-7,0.2c-1.2,0.2-2.3,0.4-2.8,0.9c-2,2-0.5,6.3,0.6,8.2
				c3.1,5.4,10.1,7.8,16.2,9.8c0.9,0.3,1.8,0.6,2.6,0.9c8.7,3.1,14,5.2,12.4,14.8c-0.2,1.2-0.4,2.5-0.7,3.6c-0.4,1.3-0.9,2.5-2,3.4
				c-2.4,2.1-6.3,1.3-8.7,3.1c-6.4,4.7-0.5,15,4.9,18c3.6,2,7.8,2.2,10.4,5.6c2.4,3.3,1.9,7.3,2.9,11c0.9,3.7,3.2,7.1,6.4,9.6
				c6.4-1.8,12.5-4.3,18.1-7.6c1.8-1,3.5-2.1,5.2-3.3c-0.2-1.2-0.4-2.3-0.5-3.1c-0.5-5.7-1.7-10.7-4-15.9c-2.6-5.6-2.8-10,4.2-11.8
				c6.6-1.7,9.9,0.3,13.1-5.7c1.2-2.2,1.7-4.9,2.8-7.1c0.5-1-0.1-1.9,1.1-2.6c2.2-1.3,8.3-0.1,12.8,0.9c0-0.2,0.1-0.5,0.2-0.7
				C856.5,595.2,844.1,568.7,821.9,553.6z"/>
			<path class="st1" d="M759.9,556.8c0.7-2.7-0.5-6.8-1.7-9.2c-0.6-1.1-1.2-2.2-1.9-3.2c-8.9,2.9-17.1,7.4-24.2,13.2
				c-5.2,4.2-9.9,9.1-13.8,14.6c4.1-1.4,8.6-1.7,12.4-4c2.1-1.3,4.6-2.2,7.1-2.9c1.7-0.5,3.4-0.9,4.9-1.2
				C748.4,563.1,758.2,563.9,759.9,556.8z"/>
		</g>
		<path class="st1" d="M791.5,541.6c-12.2-1.9-24.2-0.7-35.3,2.8c0.7,1,1.4,2.1,1.9,3.2c1.3,2.4,2.4,6.4,1.7,9.2
			c-1.7,7.1-11.5,6.3-17.2,7.4c-1.6,0.3-3.3,0.7-4.9,1.2c-2.5,0.7-5,1.6-7.1,2.9c-3.8,2.3-8.3,2.6-12.4,4c-5.8,8.2-9.9,17.6-11.8,28
			c-0.1,0.8-0.2,1.5-0.3,2.3c3.8,2.4,8.9,3.8,12.1,5.1c4.8,1.8,13.3,2.7,15.3,7.5c4.6,10.6-6.4,20.3-6.3,30.7c0,4.5,1.6,11.8,1,17.6
			c10.2,9.3,23.3,15.7,38.2,18.1c11,1.7,21.9,0.9,32-1.9c-3.1-2.4-5.5-5.9-6.4-9.6c-1-3.7-0.5-7.7-2.9-11c-2.5-3.5-6.7-3.7-10.4-5.6
			c-5.4-3-11.3-13.3-4.9-18c2.4-1.8,6.3-1,8.7-3.1c1.1-1,1.7-2.2,2-3.4c0.3-1.2,0.5-2.4,0.7-3.6c1.6-9.6-3.6-11.7-12.4-14.8
			c-0.8-0.3-1.7-0.6-2.6-0.9c-6-2-13-4.4-16.2-9.8c-1.1-2-2.7-6.3-0.6-8.2c0.5-0.5,1.5-0.7,2.8-0.9c2.5-0.3,5.9-0.2,7-0.2
			c3.1-0.2,6.1-0.4,9.1-1.3c3.1-0.9,4-1.2,4.6-4.4c1-5.7-2.3-11.6-2.1-17.4c0.5-14.3,21-10.4,31-11.1c1.6-0.1,8.7-1,16-2.6
			C813.1,547.6,802.9,543.3,791.5,541.6z"/>
	</g>
</g>
<g class="st0">
	<path class="st1" d="M219.1,118.8c-25.6,15.4-33.7,48.7-18.3,74.2c14.2,23.5,43.5,32.3,68,21.5l6-3.6l6-3.6
		c20.9-16.7,26.8-46.7,12.6-70.2C277.9,111.6,244.6,103.4,219.1,118.8z M269.3,201.8c-20.3,12.3-46.7,5.8-59-14.5
		c-12.3-20.3-5.8-46.7,14.5-59c20.3-12.3,46.7-5.8,59,14.5C296.1,163.2,289.5,189.6,269.3,201.8z"/>
	<path class="st1" d="M294.6,212.9l-2.2-3.7c-2.2-3.6-6.9-4.8-10.5-2.6l-1.2,0.7l-6,3.6l-6,3.6l-1.2,0.7c-3.6,2.2-4.8,6.9-2.6,10.5
		l2.2,3.7c2.2,3.6,6.9,4.7,10.5,2.6c-3.6,2.2-4.8,6.9-2.6,10.5l28.8,47.7c2.2,3.6,6.9,4.7,10.5,2.6l7.2-4.3l7.2-4.3
		c3.6-2.2,4.8-6.9,2.6-10.5l-28.8-47.7c-2.2-3.6-6.8-4.8-10.5-2.6C295.6,221.2,296.8,216.5,294.6,212.9z"/>
</g>
<g class="st0">
	<path class="st1" d="M666.9,190.6c-0.3,12.8-1.3,58.4-1.8,81.5"/>
	<path class="st1" d="M672.8,275c0.5-20.8,1.5-65.6,1.8-81.7"/>
	<path class="st1" d="M764.9,136.9c-17.5,7.4-64.3,27.2-79.4,33.6"/>
	<path class="st1" d="M688.1,177.9c14.6-6.2,62.4-26.4,79.9-33.8"/>
	<path class="st1" d="M662.4,174.7c-2.6,6.9,0.8,14.5,7.7,17.2c6.9,2.6,14.5-0.8,17.2-7.7c2.6-6.9-0.8-14.5-7.7-17.2
		C672.7,164.4,665.1,167.8,662.4,174.7z M669.4,177.4c1.1-3,4.5-4.5,7.5-3.4c3,1.1,4.5,4.5,3.4,7.5c-1.1,3-4.5,4.5-7.5,3.4
		C669.8,183.7,668.3,180.4,669.4,177.4z"/>
	<path class="st1" d="M637.8,280.3l2.4-6.4c2-5.4,8-8,13.4-6l33.2,12.6c5.4,2,8,8,6,13.4l-2.4,6.4L637.8,280.3z"/>
	<path class="st1" d="M778.1,147.8c-2.7-6.2-9.6-22-9.6-22l-6.6,2.9c0,0,7,15.9,9.7,22.1"/>
	<polygon class="st1" points="771.3,195.9 811.3,179.9 786.7,146.1 765.4,155.4 	"/>
</g>
<g class="st0">
	<polygon class="st1" points="863.2,469.4 857.9,458.2 842.1,460.6 851.4,480.1 	"/>
	<polygon class="st1" points="875.5,457.2 857.9,458.4 863.1,469.2 	"/>
	<polygon class="st1" points="784.2,496.2 784.2,496.2 787.2,502.5 790.4,509.1 851.4,480.1 848.3,473.5 845.3,467.2 845.3,467.2 
		842.1,460.6 781.1,489.6 	"/>
	<line class="st1" x1="845.4" y1="471.4" x2="787.1" y2="499.3"/>
</g>
<g class="st0">
	<path class="st1" d="M135.3,256.4c5.6-1.9,9.1-3.1,9.1-3.1c4.9-1.7,10.1,0.9,11.8,5.8l25.8,75.4c1.7,4.9-0.9,10.1-5.8,11.8
		l-86.3,29.5c-4.9,1.7-10.1-0.9-11.8-5.8l-25.8-75.4c-1.7-4.9,0.9-10.1,5.8-11.8c0,0,3.3-1.1,8.6-2.9"/>
	<path class="st1" d="M80.2,275.2c13-4.5,29.5-10.1,42.4-14.5"/>
	<g>
		<path class="st1" d="M81.1,280.1c1.2,3.4-0.7,7.1-4.1,8.3l0,0c-3.4,1.2-7.1-0.7-8.3-4.1L65,273.5c-1.2-3.4,0.7-7.2,4.1-8.3l0,0
			c3.4-1.2,7.2,0.7,8.3,4.1L81.1,280.1z"/>
		<path class="st1" d="M136.9,261.1c1.2,3.4-0.7,7.2-4.1,8.3l0,0c-3.4,1.2-7.2-0.7-8.3-4.1l-3.7-10.9c-1.2-3.4,0.7-7.2,4.1-8.3l0,0
			c3.4-1.2,7.2,0.7,8.3,4.1L136.9,261.1z"/>
	</g>
	<g>
		<path class="st3" d="M93.4,306.5c1-0.6,2.2-1.1,3.1-1.4c1-0.3,2-0.6,3.3-0.8l11,32.2c0.5,1.6,0.9,2.9,1.4,4.4c1-0.3,3-1.1,3.8-1.4
			l4.5-1.5c0.5,0.8,0.9,1.8,1.2,2.8c0.3,0.9,0.6,1.9,0.7,2.9L97.9,352c-0.5-0.9-0.9-1.8-1.2-2.7c-0.3-1-0.6-2-0.7-3l6-2
			c0.8-0.3,2.8-0.9,3.7-1.2c-0.5-1.5-1-2.8-1.6-4.3l-5.1-14.8c-0.6-1.6-1.6-5.2-2.4-8c-1.4,3.9-4.2,7.7-7,10.2
			c-1.7-0.3-3.3-1.5-4.2-3.1C90.5,317,93,311,93.4,306.5z"/>
		<path class="st3" d="M141.9,293c0.7,2,0,3.4-2,4l-11.3,3.8l-2.5,0.8l1.1,3.3l1.3,4.6l0.4,1.8c1.5-1.3,3.2-2.4,5.3-3.1
			c7.9-2.7,15,0.6,17.8,9c3.6,10.5-2.2,17.9-9.7,20.5c-5.1,1.8-10,1.5-13.7,0c-0.2-1.5,0.3-4,1.3-5.5c3.2,0.9,6.5,1.3,10,0.1
			c4.4-1.5,7.3-5.8,5.1-12.3c-2.2-6.6-7.1-7.1-10.9-5.8c-2.5,0.9-4.8,2.7-6.4,5.3c-1.3,0.2-3.1-0.4-4-1.2l-5.8-19.9l0.3-0.6
			l22.1-7.5C141.1,291.2,141.6,292.3,141.9,293z"/>
	</g>
</g>
<g class="st0">
	<path class="st4" d="M788.6,750c1.6,3.9-0.2,8.3-4.1,10l-17,7c-3.9,1.6-8.3-0.2-10-4.1l-7-17c-1.6-3.9,0.2-8.3,4.1-10l17-7
		c3.9-1.6,8.3,0.2,10,4.1L788.6,750z"/>
	<path class="st3" d="M764.3,740.4c0.5-0.4,1.1-0.6,1.7-0.9c0.7-0.3,1.3-0.5,1.9-0.6l2,4.7c0.2,0.6,0.5,1.3,0.7,1.9
		c0.6-0.2,1.3-0.6,1.9-0.8l4.4-1.8c0.4,0.5,0.6,1,0.9,1.6c0.3,0.7,0.5,1.2,0.6,1.8l-4.4,1.8c-0.6,0.3-1.3,0.5-1.9,0.7
		c0.3,0.6,0.6,1.3,0.8,1.8l2,4.8c-0.5,0.3-1.1,0.6-1.7,0.9c-0.7,0.3-1.3,0.5-1.9,0.6l-2-4.8c-0.2-0.5-0.5-1.2-0.7-1.9
		c-0.6,0.3-1.3,0.6-1.9,0.8l-4.4,1.8c-0.3-0.5-0.6-1-0.9-1.7c-0.3-0.7-0.4-1.2-0.5-1.8l4.4-1.8c0.6-0.2,1.3-0.5,1.9-0.7
		c-0.3-0.6-0.6-1.3-0.8-1.9L764.3,740.4z"/>
	<path class="st4" d="M827.3,733.9c1.6,3.9-0.2,8.3-4.1,10l-17,7c-3.9,1.6-8.3-0.2-10-4.1l-7-17c-1.6-3.9,0.2-8.3,4.1-10l17-7
		c3.9-1.6,8.3,0.2,10,4.1L827.3,733.9z"/>
	<path class="st3" d="M804.2,735.6c-0.4-0.5-0.7-1.1-0.9-1.6c-0.2-0.5-0.5-1.2-0.5-1.8l9.5-3.9c0.4,0.5,0.7,1.1,0.9,1.7
		c0.2,0.5,0.4,1.2,0.5,1.8L804.2,735.6z"/>
	<path class="st4" d="M804,787.1c1.6,3.9-0.2,8.3-4.1,10l-17,7c-3.9,1.6-8.3-0.2-10-4.1l-7-17c-1.6-3.9,0.2-8.3,4.1-10l17-7
		c3.9-1.6,8.3,0.2,10,4.1L804,787.1z"/>
	<path class="st4" d="M842.7,771.1c1.6,3.9-0.2,8.3-4.1,10l-17,7c-3.9,1.6-8.3-0.2-10-4.1l-7-17c-1.6-3.9,0.2-8.3,4.1-10l17-7
		c3.9-1.6,8.3,0.2,10,4.1L842.7,771.1z"/>
	<g>
		<path class="st3" d="M821.8,778.6c-0.7,0-1.3-0.2-1.9-0.4c-0.5-0.2-1.1-0.6-1.6-1l2.3-5.3c0.2-0.5,0.5-1.1,0.7-1.6l-1.6-0.7
			l-5.4-2.2c0-0.6,0.1-1.3,0.4-1.9c0.2-0.6,0.6-1.2,1-1.6l5.4,2.2c0.5,0.2,1.1,0.5,1.6,0.8c0.3-0.6,0.5-1.2,0.7-1.7l2.2-5.4
			c0.6,0,1.3,0.1,1.9,0.4c0.6,0.2,1.2,0.6,1.7,1.1l-2.2,5.3c-0.2,0.5-0.5,1.2-0.7,1.7c0.5,0.2,1.2,0.4,1.7,0.6l5.4,2.2
			c0,0.7-0.1,1.3-0.4,1.9c-0.2,0.6-0.6,1.2-1.1,1.6l-5.3-2.3l-1.7-0.7l-0.6,1.6L821.8,778.6z"/>
	</g>
	<g>
		<path class="st3" d="M777.6,790.1c-0.3-0.5-0.6-1.1-0.9-1.6c-0.2-0.5-0.4-1.2-0.6-1.8l16.1-6.7c0.4,0.5,0.6,1.1,0.9,1.7
			c0.2,0.5,0.5,1.2,0.5,1.8L777.6,790.1z M779.4,777.4c0.4-0.5,1.1-1,1.8-1.3c0.7-0.3,1.7-0.5,2.2-0.4c0.4,0.3,0.8,1,1,1.5
			c0.2,0.5,0.4,1.3,0.3,1.8c-0.3,0.4-1.1,1-1.8,1.3c-0.7,0.3-1.6,0.5-2.2,0.4c-0.4-0.3-0.8-0.9-1-1.5
			C779.5,778.7,779.4,777.9,779.4,777.4z M785.1,791.1c0.4-0.5,1.1-1,1.8-1.3c0.7-0.3,1.7-0.5,2.2-0.4c0.4,0.3,0.8,1,1,1.5
			c0.2,0.6,0.4,1.3,0.3,1.8c-0.3,0.4-1.1,1-1.8,1.3c-0.7,0.3-1.7,0.5-2.2,0.4c-0.4-0.3-0.8-0.9-1-1.5
			C785.2,792.4,785,791.6,785.1,791.1z"/>
	</g>
</g>
<g class="st0">
	<path class="st1" d="M287.2,403.4c7.4,27.1-8.5,55.1-35.6,62.5c-27.1,7.4-55.1-8.5-62.5-35.6c-7.4-27.1,8.5-55.1,35.6-62.5
		C251.7,360.4,279.7,376.3,287.2,403.4z"/>
	<g>
		<path class="st3" d="M206.8,425.4c0.4,1.6-0.5,3.2-2.1,3.6c-1.6,0.4-3.2-0.5-3.6-2.1c-0.4-1.6,0.5-3.2,2.1-3.6
			C204.8,422.9,206.4,423.9,206.8,425.4z"/>
		<path class="st3" d="M275.1,406.7c0.4,1.6-0.5,3.2-2.1,3.6c-1.6,0.4-3.2-0.5-3.6-2.1c-0.4-1.6,0.5-3.2,2.1-3.6
			C273,404.2,274.6,405.2,275.1,406.7z"/>
	</g>
	<g>
		<path class="st3" d="M229.5,385.6c-1.6,0.4-3.2-0.5-3.6-2.1c-0.4-1.6,0.5-3.2,2.1-3.6c1.6-0.4,3.2,0.5,3.6,2.1
			C232,383.5,231.1,385.2,229.5,385.6z"/>
		<path class="st3" d="M248.2,453.8c-1.6,0.4-3.2-0.5-3.6-2.1c-0.4-1.6,0.5-3.2,2.1-3.6c1.6-0.4,3.2,0.5,3.6,2.1
			C250.7,451.8,249.8,453.4,248.2,453.8z"/>
	</g>
	<path class="st3" d="M259.6,387.1c-0.1-0.6-0.5-1.2-1.1-1.6c-0.4-0.2-0.9-0.4-1.3-0.4c-0.9,0-1.7,0.4-2.1,1.2l-17.7,28.2l-19.3-6.9
		c-0.3-0.1-0.6-0.1-0.8-0.1c-1.1,0-2,0.7-2.3,1.7c-0.2,0.6-0.2,1.3,0.1,1.9c0.3,0.6,0.8,1.1,1.4,1.3l21,7.5c0.3,0.1,0.7,0.2,1,0.2
		c0.1,0,0.2,0,0.4,0c0,0,0.1,0,0.1,0c0.1,0,0.2,0,0.3-0.1c0.1,0,0.3-0.1,0.4-0.2c0,0,0.1,0,0.1-0.1c0.4-0.2,0.8-0.6,1-1.1l18.6-29.7
		C259.7,388.4,259.8,387.7,259.6,387.1z"/>
</g>
<g class="st0">
	<g>
		<path class="st1" d="M37.1,640.7l1.8,4.3c1.2,2.9,4.5,4.3,7.4,3l3-1.2c1.7,2.2,3.7,4.2,5.9,5.8l-1.2,3c-1.2,2.9,0.2,6.2,3.1,7.4
			l4.3,1.8c2.9,1.2,6.2-0.2,7.4-3.1l1.2-3c2.7,0.4,5.5,0.4,8.3,0l1.2,3c1.2,2.9,4.5,4.3,7.4,3l4.3-1.8c2.9-1.2,4.3-4.5,3-7.4l-1.2-3
			c2.2-1.7,4.2-3.7,5.8-5.9l3,1.2c2.9,1.2,6.2-0.2,7.4-3.1l1.8-4.3c1.2-2.9-0.2-6.2-3.1-7.4l-3-1.2c0.4-2.7,0.4-5.5,0-8.3l3-1.2
			c2.9-1.2,4.3-4.5,3-7.4l-1.8-4.3c-1.2-2.9-4.5-4.3-7.4-3l-3,1.2c-1.7-2.2-3.7-4.2-5.9-5.8l1.2-3c1.2-2.9-0.2-6.2-3.1-7.4l-4.3-1.8
			c-2.9-1.2-6.2,0.2-7.4,3.1l-1.2,3c-2.7-0.4-5.5-0.4-8.3,0l-1.2-3c-1.2-2.9-4.5-4.3-7.4-3l-4.3,1.8c-2.9,1.2-4.2,4.5-3,7.4l1.2,3
			c-2.2,1.7-4.2,3.7-5.8,5.9l-3-1.2c-2.9-1.2-6.2,0.2-7.4,3.1l-1.8,4.3c-1.2,2.9,0.2,6.2,3.1,7.4l3,1.2c-0.4,2.7-0.4,5.5,0,8.3
			l-3,1.2C37.3,634.5,35.9,637.8,37.1,640.7z M54.5,636c-4.5-10.8,0.6-23.2,11.4-27.6c10.8-4.5,23.2,0.6,27.7,11.4
			c4.5,10.8-0.6,23.2-11.4,27.6C71.3,651.8,59,646.7,54.5,636z"/>
		<path class="st1" d="M104.3,570.8l-0.1,3.7c-0.1,2.5,1.9,4.5,4.4,4.6l2.5,0.1c0.5,2.2,1.3,4.2,2.4,6.1l-1.8,1.7
			c-1.8,1.7-1.9,4.6-0.2,6.4l2.5,2.7c1.7,1.8,4.6,1.9,6.4,0.2l1.8-1.7c1.9,1.1,3.9,2,6,2.7l-0.1,2.5c-0.1,2.5,1.9,4.5,4.4,4.6
			l3.7,0.1c2.5,0.1,4.5-1.9,4.6-4.4l0.1-2.5c2.2-0.5,4.2-1.3,6.1-2.4l1.7,1.8c1.7,1.8,4.6,1.9,6.4,0.2l2.7-2.5
			c1.8-1.7,1.9-4.6,0.2-6.3l-1.7-1.8c1.1-1.9,2-3.9,2.6-6l2.5,0.1c2.5,0.1,4.5-1.9,4.6-4.4l0.1-3.7c0.1-2.5-1.9-4.5-4.4-4.6
			l-2.5-0.1c-0.5-2.2-1.3-4.2-2.4-6.1l1.8-1.8c1.8-1.7,1.9-4.6,0.2-6.3l-2.5-2.7c-1.7-1.8-4.6-1.9-6.4-0.2l-1.8,1.8
			c-1.8-1.1-3.9-2-6-2.7l0.1-2.5c0.1-2.5-1.9-4.5-4.4-4.6l-3.7-0.1c-2.5-0.1-4.5,1.9-4.6,4.4l-0.1,2.5c-2.2,0.5-4.2,1.3-6.1,2.4
			l-1.7-1.8c-1.7-1.8-4.6-1.9-6.4-0.2l-2.7,2.6c-1.8,1.7-1.9,4.6-0.2,6.4l1.8,1.8c-1.1,1.9-2,3.9-2.7,6l-2.5-0.1
			C106.4,566.3,104.3,568.3,104.3,570.8z M118.3,573c0.2-9.3,7.9-16.6,17.2-16.4c9.3,0.2,16.6,7.9,16.4,17.2
			c-0.2,9.3-7.9,16.6-17.2,16.4C125.4,589.9,118.1,582.2,118.3,573z"/>
	</g>
</g>
<g class="st0">
	<path class="st1" d="M331.9,95.6c0,0-0.6-5,0.4-8.1c2.1-6.8,15.3-16.1,15-28.9C347,45.7,339,25,313.7,28.9
		c-23.7,3.6-29.3,25.6-25,37.7c5.6,15.3,18.1,14.9,23.6,22.3c1,1.3,2.7,9.3,2.7,9.3L331.9,95.6z"/>
	<path class="st1" d="M336,99c0.3,2.2-1.2,4.2-3.3,4.5l-16.6,2.5c-2.2,0.3-4.2-1.2-4.5-3.3l0,0c-0.3-2.2,1.2-4.2,3.3-4.5l16.6-2.5
		C333.6,95.3,335.7,96.8,336,99L336,99z"/>
	<path class="st1" d="M337.2,106.9c0.3,2.2-1.2,4.2-3.3,4.5l-16.6,2.5c-2.2,0.3-4.2-1.2-4.5-3.3l0,0c-0.3-2.2,1.2-4.2,3.3-4.5
		l16.6-2.5C334.8,103.2,336.9,104.7,337.2,106.9L337.2,106.9z"/>
	<path class="st1" d="M326.5,119c4.4-0.7,7.5-4,6.9-7.5l-15.8,2.4C318.2,117.4,322.2,119.6,326.5,119z"/>
	<polyline class="st1" points="321.6,96.3 304.9,56.8 314.4,60.7 316.8,51.1 321.2,59.1 329.6,51.8 325.7,96.3 	"/>
</g>
<g class="st0">
	<path class="st1" d="M341.9,569.6c0,0-0.6-5,0.4-8.1c2.1-6.8,15.3-16.1,15-28.9c-0.3-12.8-8.3-33.5-33.6-29.6
		c-23.7,3.6-29.3,25.6-25,37.7c5.6,15.3,18.1,14.9,23.6,22.3c1,1.3,2.7,9.3,2.7,9.3L341.9,569.6z"/>
	<path class="st1" d="M346,573c0.3,2.2-1.2,4.2-3.3,4.5l-16.6,2.5c-2.2,0.3-4.2-1.2-4.5-3.3l0,0c-0.3-2.2,1.2-4.2,3.3-4.5l16.6-2.5
		C343.6,569.3,345.7,570.8,346,573L346,573z"/>
	<path class="st1" d="M347.2,580.9c0.3,2.2-1.2,4.2-3.3,4.5l-16.6,2.5c-2.2,0.3-4.2-1.2-4.5-3.3l0,0c-0.3-2.2,1.2-4.2,3.3-4.5
		l16.6-2.5C344.8,577.2,346.9,578.7,347.2,580.9L347.2,580.9z"/>
	<path class="st1" d="M336.5,593c4.4-0.7,7.5-4,6.9-7.5l-15.8,2.4C328.2,591.4,332.2,593.6,336.5,593z"/>
	<polyline class="st1" points="331.6,570.3 314.9,530.8 324.4,534.7 326.8,525.1 331.2,533.1 339.6,525.8 335.7,570.3 	"/>
</g>
<g class="st0">
	<path class="st1" d="M753.9,240.9H820c6.5,0,11.8,5.3,11.8,11.8v42.4c0,6.5-5.3,11.8-11.8,11.8h-40.7l-19.5,19.5V307h-5.9
		c-6.5,0-11.8-5.3-11.8-11.8v-42.4C742.1,246.2,747.4,240.9,753.9,240.9z"/>
	<g>
		<path class="st1" d="M803.3,274.7c0,4.1,3.3,7.3,7.3,7.3c4.1,0,7.3-3.3,7.3-7.3c0-4.1-3.3-7.3-7.3-7.3
			C806.6,267.4,803.3,270.7,803.3,274.7z"/>
		<path class="st1" d="M779.6,274.7c0,4.1,3.3,7.3,7.3,7.3c4.1,0,7.3-3.3,7.3-7.3c0-4.1-3.3-7.3-7.3-7.3
			C782.9,267.4,779.6,270.7,779.6,274.7z"/>
		<path class="st1" d="M755.9,274.7c0,4.1,3.3,7.3,7.3,7.3c4.1,0,7.3-3.3,7.3-7.3c0-4.1-3.3-7.3-7.3-7.3
			C759.2,267.4,755.9,270.7,755.9,274.7z"/>
	</g>
</g>
<g class="st0">
	<path class="st1" d="M501.3,605.2h66.1c6.5,0,11.8,5.3,11.8,11.8v42.4c0,6.5-5.3,11.8-11.8,11.8h-40.7l-19.5,19.5v-19.5h-5.9
		c-6.5,0-11.8-5.3-11.8-11.8v-42.4C489.5,610.5,494.8,605.2,501.3,605.2z"/>
	<g>
		<path class="st1" d="M550.7,639c0,4.1,3.3,7.3,7.3,7.3c4.1,0,7.3-3.3,7.3-7.3c0-4.1-3.3-7.3-7.3-7.3
			C554,631.7,550.7,634.9,550.7,639z"/>
		<path class="st1" d="M527,639c0,4.1,3.3,7.3,7.3,7.3c4.1,0,7.3-3.3,7.3-7.3c0-4.1-3.3-7.3-7.3-7.3C530.3,631.7,527,634.9,527,639z
			"/>
		<path class="st1" d="M503.3,639c0,4.1,3.3,7.3,7.3,7.3c4.1,0,7.3-3.3,7.3-7.3c0-4.1-3.3-7.3-7.3-7.3
			C506.6,631.7,503.3,634.9,503.3,639z"/>
	</g>
</g>
<g class="st0">
	<path class="st1" d="M375.6,623.2h66.1c6.5,0,11.8,5.3,11.8,11.8v42.4c0,6.5-5.3,11.8-11.8,11.8H401l-19.5,19.5v-19.5h-5.9
		c-6.5,0-11.8-5.3-11.8-11.8v-42.4C363.8,628.5,369.1,623.2,375.6,623.2z"/>
	<g>
		<path class="st1" d="M425,657c0,4.1,3.3,7.3,7.3,7.3c4.1,0,7.3-3.3,7.3-7.3c0-4.1-3.3-7.3-7.3-7.3C428.3,649.7,425,652.9,425,657z
			"/>
		<path class="st1" d="M401.3,657c0,4.1,3.3,7.3,7.3,7.3c4.1,0,7.3-3.3,7.3-7.3c0-4.1-3.3-7.3-7.3-7.3
			C404.6,649.7,401.3,652.9,401.3,657z"/>
		<path class="st1" d="M377.6,657c0,4.1,3.3,7.3,7.3,7.3c4.1,0,7.3-3.3,7.3-7.3c0-4.1-3.3-7.3-7.3-7.3
			C380.9,649.7,377.6,652.9,377.6,657z"/>
	</g>
</g>
<polygon class="st5" points="707.3,32.3 723.7,57 750.9,52.6 734.6,76.9 743.5,103.3 717.2,94.3 694.9,111 695.2,83.2 672.2,65.1 
	699.4,60.8 "/>
<polygon class="st5" points="405.2,779.9 390.1,805.4 405.8,828 376.9,823.8 357.1,843.4 353.6,815.8 328.9,802.9 354.1,791.1 
	360.3,762.5 376.1,785.1 "/>
<polygon class="st5" points="842.3,363.2 822.3,385.1 833.1,410.4 805.6,400.5 782.2,415.6 784.5,387.8 762.9,370.3 790,363.8 
	801.9,337.1 812.7,362.4 "/>
<g class="st0">
	<path class="st1" d="M559.1,803c2.6-2.5,6.7-2.4,9.2,0.2c2.5,2.6,2.4,6.7-0.2,9.2c-2.6,2.5-6.7,2.4-9.2-0.2
		C556.4,809.6,556.5,805.5,559.1,803z"/>
	<path class="st1" d="M537.6,823.7c2.6-2.5,6.7-2.4,9.2,0.2c2.5,2.6,2.4,6.7-0.2,9.2c-2.6,2.5-6.7,2.4-9.2-0.2
		C534.9,830.3,535,826.2,537.6,823.7z"/>
	<path class="st1" d="M495.6,864.1c2.6-2.5,6.7-2.4,9.2,0.2c2.5,2.6,2.4,6.7-0.2,9.2c-2.6,2.5-6.7,2.4-9.2-0.2
		C493,870.7,493.1,866.6,495.6,864.1z"/>
	<path class="st1" d="M523.5,766c2.6-2.5,6.7-2.4,9.2,0.2c2.5,2.6,2.4,6.7-0.2,9.2c-2.6,2.5-6.7,2.4-9.2-0.2
		C520.8,772.6,520.9,768.5,523.5,766z"/>
	<path class="st1" d="M552,773.5c2.6-2.5,6.7-2.4,9.2,0.2c2.5,2.6,2.4,6.7-0.2,9.2c-2.6,2.5-6.7,2.4-9.2-0.2
		C549.4,780.1,549.5,776,552,773.5z"/>
	<path class="st1" d="M507.5,816.3c2.6-2.5,6.7-2.4,9.2,0.2c2.5,2.6,2.4,6.7-0.2,9.2c-2.6,2.5-6.7,2.4-9.2-0.2
		C504.9,822.9,505,818.8,507.5,816.3z"/>
	<path class="st1" d="M486.9,836.2c2.6-2.5,6.7-2.4,9.2,0.2c2.5,2.6,2.4,6.7-0.2,9.2c-2.6,2.5-6.7,2.4-9.2-0.2
		C484.2,842.8,484.3,838.7,486.9,836.2z"/>
	<path class="st1" d="M502,786.7c2.6-2.5,6.7-2.4,9.2,0.2c2.5,2.6,2.4,6.7-0.2,9.2c-2.6,2.5-6.7,2.4-9.2-0.2
		C499.3,793.3,499.4,789.2,502,786.7z"/>
	<path class="st1" d="M460,827.1c2.6-2.5,6.7-2.4,9.2,0.2c2.5,2.6,2.4,6.7-0.2,9.2c-2.6,2.5-6.7,2.4-9.2-0.2
		C457.4,833.7,457.5,829.6,460,827.1z"/>
	<path class="st1" d="M484.4,838.8c-6.1-1.8-14.1-4.2-14.1-4.2"/>
	<path class="st1" d="M498.3,862.5c0,0-2.8-8.7-4.8-15"/>
	<path class="st1" d="M508.1,797.8c1.3,5,3.1,11.9,4.3,16.7"/>
	<path class="st1" d="M523.3,775.2c-3.6,3.5-8,7.7-11.6,11.2"/>
	<path class="st1" d="M549.9,776.4c-4.7-1.2-10.5-2.7-15.3-4"/>
	<path class="st1" d="M561.9,800.8c-1.2-4.9-2.7-11.4-3.8-16.2"/>
	<path class="st1" d="M547.4,823.3c3.5-3.4,8-7.7,11.4-11"/>
	<path class="st1" d="M519.1,821.5c4.7,1.4,11.5,3.4,16.5,4.9"/>
	<line class="st1" x1="496" y1="836.4" x2="507.4" y2="825.5"/>
</g>
<g class="st0">
	<g>
		<g>
			<g>
				<g>
					<path class="st1" d="M444.7,156L444.7,156C444.7,156,444.7,156,444.7,156z"/>
					<path class="st1" d="M443.6,156L443.6,156C443.6,156,443.6,156,443.6,156z"/>
					<path class="st1" d="M456.2,153.5c-7,2.1-12.6,2.8-12.6,2.8c-1.4,0.1-4.5-0.1-11.8-1.4c-11.2-2-27,8.8-25.7,29.7
						c0.9,16.1,17.7,42,30.5,41.3c2.9-0.2,9.1-3.8,11.5-3.9c2.4-0.1,9,2.7,12,2.5c12.7-0.8,26.3-28.5,25.3-44.7
						C484.1,158.9,467.2,150.2,456.2,153.5z"/>
				</g>
			</g>
		</g>
		<path class="st1" d="M444.7,156c0,0,3.9-16-8.4-27.7"/>
	</g>
	<path class="st1" d="M444.7,142.1l9.3-7.8c0,0-2.5-6.3,1.5-12.4c5.6-8.7,21.2-8.4,21.2-8.4s1.5,15.7-9.4,20.5
		c-6.6,2.9-13.2,0.4-13.2,0.4"/>
</g>
<path class="st5" d="M820.5,107.5l-6.1,8.3c-1.4-0.1-2.9-0.6-4.4-1.1c-1.6-0.6-3.7-1.6-4.8-2.5l-0.1-0.6l29.4-38.1
	c1.8,0.3,4.4,1.1,6.1,1.7c1.7,0.6,4.3,1.7,5.7,2.5l-1.4,48.1c-1.7,0.3-4.4-0.2-6.3-0.9c-3.3-1.2-4.5-2.9-4.2-7.8l0.3-4.7
	c-0.9-0.2-1.9-0.6-2.5-0.8l-9.1-3.2C822.2,108.2,821.3,107.9,820.5,107.5z M825.7,100.3c0.8,0.3,1.9,0.6,2.6,0.8l4.7,1.7
	c0.6,0.2,1.5,0.6,2.3,0.9l0.3-4.4c0.3-4,0.7-9.9,1.2-14.5l-0.4-0.1c-1.9,3.4-5.2,8-7.4,11.2L825.7,100.3z"/>
<path class="st5" d="M419.3,284.8l-6.1,8.3c-1.4-0.1-2.9-0.6-4.4-1.1c-1.6-0.6-3.7-1.6-4.8-2.5l-0.1-0.6l29.4-38.1
	c1.8,0.3,4.4,1.1,6.1,1.7c1.7,0.6,4.3,1.7,5.7,2.5l-1.4,48.1c-1.7,0.3-4.4-0.2-6.3-0.9c-3.3-1.2-4.5-2.9-4.2-7.8l0.3-4.7
	c-0.9-0.2-1.9-0.6-2.5-0.8l-9.1-3.2C421.1,285.5,420.2,285.2,419.3,284.8z M424.6,277.6c0.8,0.3,1.9,0.6,2.6,0.8l4.7,1.7
	c0.6,0.2,1.5,0.6,2.3,0.9l0.3-4.4c0.3-4,0.7-9.9,1.2-14.5l-0.4-0.1c-1.9,3.4-5.2,8-7.4,11.2L424.6,277.6z"/>
<path class="st5" d="M175,35.2c10.5-3.3,19-1.3,21.9,8.3c1.4,4.5-0.2,9.6-3.5,12.4c5.6,0.1,11.3,4.3,13.2,10.3
	c3.3,10.6-2.7,17.5-14.2,21.1c-5.8,1.8-12.1,3.6-18.7,5.5l-0.7-0.4l-15.8-50.8l0.4-0.7C163.7,38.9,169.6,36.9,175,35.2z M175.4,57.8
	l5.4-1.7c5.1-1.6,5.6-5.2,4.7-8.2c-0.9-2.9-3.3-5.5-8.3-3.9c-1.4,0.4-3.5,1.1-5.5,1.6L175.4,57.8z M178.1,66.4l4.6,14.7
	c2.4-0.8,4.7-1.6,6.3-2c6.2-1.9,6.4-6.4,5.4-9.6c-1-3.3-4-6.9-10-5L178.1,66.4z"/>
<path class="st5" d="M421,493.2c10.5-3.3,19-1.3,21.9,8.3c1.4,4.5-0.2,9.6-3.5,12.4c5.6,0.1,11.3,4.3,13.2,10.3
	c3.3,10.6-2.7,17.5-14.2,21.1c-5.8,1.8-12.1,3.6-18.7,5.5l-0.7-0.4l-15.8-50.8l0.4-0.7C409.7,496.9,415.6,494.9,421,493.2z
	 M421.4,515.8l5.4-1.7c5.1-1.6,5.6-5.2,4.7-8.2c-0.9-2.9-3.3-5.5-8.3-3.9c-1.4,0.4-3.5,1.1-5.5,1.6L421.4,515.8z M424.1,524.4
	l4.6,14.7c2.4-0.8,4.7-1.6,6.3-2c6.2-1.9,6.4-6.4,5.4-9.6c-1-3.3-4-6.9-10-5L424.1,524.4z"/>
<path class="st5" d="M722,801.6c-6.1,1.5-7.1,7.8-4.4,18.6c2.4,10.1,7.2,14.3,13.4,12.8c4.9-1.2,8.2-4.7,10.9-7.8
	c2.6,1,5.8,3.5,7,6.1c-3.1,5-9.7,10.3-17.5,12.2c-15,3.6-22.7-8.2-25.7-20.4c-4.3-17.9,3.2-27.9,14.5-30.6c11-2.7,19.8,2,21.8,10.3
	c1.1,4.5-0.9,6.9-4.9,7.9c-1.7,0.4-3.1,0.4-4.5,0.4C731.2,805.2,728.2,800.1,722,801.6z"/>
<g class="st0">
	<path class="st1" d="M295.3,868.4"/>
	<path class="st1" d="M272.4,845.6"/>
	<path class="st1" d="M295.3,822.7"/>
	<path class="st1" d="M295.3,822.7c0,12.6-10.2,22.9-22.9,22.9c12.6,0,22.9,10.2,22.9,22.9c0-12.6,10.2-22.9,22.9-22.9
		C305.5,845.6,295.3,835.3,295.3,822.7z"/>
	<path class="st1" d="M318.1,845.6"/>
</g>
<g class="st0">
	<path class="st1" d="M343.7,224"/>
	<path class="st1" d="M325.4,205.7"/>
	<path class="st1" d="M343.7,187.4"/>
	<path class="st1" d="M343.7,187.4c0,10.1-8.2,18.3-18.3,18.3c10.1,0,18.3,8.2,18.3,18.3c0-10.1,8.2-18.3,18.3-18.3
		C351.9,205.7,343.7,197.5,343.7,187.4z"/>
	<path class="st1" d="M362,205.7"/>
</g>
<g class="st0">
	<path class="st1" d="M825.7,865.8"/>
	<path class="st1" d="M807.4,847.5"/>
	<path class="st1" d="M825.7,829.2"/>
	<circle class="st1" cx="825.7" cy="847.5" r="18.3"/>
	<path class="st1" d="M844,847.5"/>
</g>
</svg>
