<?xml version="1.0" encoding="utf-8"?>
<!-- Generator: Adobe Illustrator 23.0.1, SVG Export Plug-In . SVG Version: 6.00 Build 0)  -->
<svg version="1.1" id="OBJECTS" xmlns="http://www.w3.org/2000/svg" xmlns:xlink="http://www.w3.org/1999/xlink" x="0px" y="0px"
	 viewBox="0 0 500 457" style="enable-background:new 0 0 500 457;" xml:space="preserve">
<style type="text/css">
	.st0{fill:#AAA9CB;}
	.st1{fill:#CCCCCC;}
	.st2{fill:#3C3D88;}
	.st3{fill:url(#SVGID_1_);}
	.st4{clip-path:url(#SVGID_3_);fill:#3C3D88;}
</style>
<g>
	<path class="st0" d="M391.3,316.4c26.8,12.7,75.2,27.1,111.6-9.6c53-53.5,29.6-162.5,28.5-164.5c-28-50.9-147.5-99.4-151.1-77.3
		l52.8,53.1l-49.1-43.5c0,0-362.3,54.8-364.1,56.6c-57.3,59.7-94.7,176-35.8,230.5c51.9,36.9,100.1,47.4,150.3,12.7
		c44.1-30.5,74.3-74.9,106.4-95.6c27.6-17.8,51.4-20.6,130.8,26.2 M387,314.3 M428.4,292.5c-0.6-2-16.4-19.9-25.8-30.3l12-56.9
		l52.3,38.3C466.9,243.7,430.1,289.3,428.4,292.5z"/>
	<path class="st1" d="M-37.5,116.5L-37.5,116.5C-37.5,116.5-37.5,116.5-37.5,116.5z"/>
</g>
<g>
	<path class="st2" d="M81.6,390.5c-46.6,4.1-80-38.6-91.6-117c-6.7-45.4-0.8-88.8,17.6-129C23.6,109.3,49,77.8,81,53.2
		c32.2-24.8,79.7-41.5,130.2-45.9c94.2-8.2,181.4,25.6,239.4,93c21,24.4,35.7,52.2,42.5,80.6c6.4,26.7,5.5,52.5-2.8,72.8
		c-10,24.6-29.7,39.4-55.3,41.7c-15.4,1.3-32.6-1.8-51.1-9.5c-9.6-4-18.4-7.8-26.9-11.4c-34.2-14.8-58.9-25.5-82.7-23.4
		c-8.4,0.7-16.5,3.1-24.8,7.1c-18.9,9.3-40,33-66.7,63c-3.7,4.1-7.5,8.4-11.4,12.8C140.3,368.5,109.3,388.1,81.6,390.5
		C81.6,390.5,81.6,390.5,81.6,390.5z"/>
	
		<linearGradient id="SVGID_1_" gradientUnits="userSpaceOnUse" x1="27.9913" y1="279.0426" x2="368.8396" y2="135.0437" gradientTransform="matrix(0.9962 -8.720000e-02 8.720000e-02 0.9962 -8.6116 23.7333)">
		<stop  offset="0" style="stop-color:#9F9F9F"/>
		<stop  offset="1" style="stop-color:#FFFFFF;stop-opacity:0"/>
	</linearGradient>
	<path class="st3" d="M17,192.2c-11.3,74.9,36.2,151,101.8,130c27.5-8.8,77.5-48.1,118.1-69.6c41-21.7,89.6,7.2,152.2,33.1
		c108.8,44.9,140.1-82.3,59.5-175.8C342.9-12.9,183.2,16.6,129.2,44.5C108.8,55,31.2,98.3,17,192.2z"/>
	<g>
		<defs>
			<path id="SVGID_2_" d="M102,320.3c-23.2,2-39.8-10-49.6-20.5c-22.8-24.2-33.7-65-27.8-103.9c5.8-38.3,23.2-72.2,51.6-100.8
				c11.1-11.2,30-27.4,56.5-41.1c21.8-11.3,54.7-19.8,87.8-22.7c51.4-4.5,148.6,0.7,222.2,86.2c19.5,22.7,33.2,48.5,39.5,74.8
				c5.8,23.9,5,46.7-2.2,64.3c-5.6,13.8-17.7,30.8-43.6,33c-13.1,1.1-28.1-1.7-44.5-8.5c-10.1-4.2-19.9-8.5-29.4-12.6
				c-38.1-16.6-71-31-101.3-28.3c-10,0.9-19.4,3.6-28,8.2c-17.6,9.3-36.7,21.7-55.1,33.7c-24.2,15.7-47,30.6-61.8,35.3
				C111.6,318.9,106.7,319.9,102,320.3C102,320.3,102,320.3,102,320.3z"/>
		</defs>
		<use xlink:href="#SVGID_2_"  style="overflow:visible;fill:#FFFFFF;"/>
		<clipPath id="SVGID_3_">
			<use xlink:href="#SVGID_2_"  style="overflow:visible;"/>
		</clipPath>
		<rect x="-12.8" y="-40.1" class="st4" width="582.9" height="398"/>
	</g>
</g>
</svg>
