<?xml version="1.0" encoding="utf-8"?>
<!-- Generator: Adobe Illustrator 16.0.0, SVG Export Plug-In . SVG Version: 6.00 Build 0)  -->
<!DOCTYPE svg PUBLIC "-//W3C//DTD SVG 1.1//EN" "http://www.w3.org/Graphics/SVG/1.1/DTD/svg11.dtd">
<svg version="1.1" id="Layer_1" xmlns="http://www.w3.org/2000/svg" xmlns:xlink="http://www.w3.org/1999/xlink" x="0px" y="0px"
	 width="191.097px" height="141.546px" viewBox="0 0 191.097 141.546" enable-background="new 0 0 191.097 141.546"
	 xml:space="preserve">
<path fill="#FEC80E" d="M158.374,0.769c-6.106,5.953-11.463,11.415-17.14,16.521c-1.251,1.125-3.635,1.37-5.499,1.376
	c-26.492,0.084-52.985,0.058-79.477,0.058h-5.823v103.387H159.82v-5.364c0.001-16.662-0.096-33.325,0.118-49.984
	c0.028-2.186,1.152-4.803,2.632-6.443c4.788-5.31,9.977-10.259,15.653-15.994c0.221,1.987,0.466,3.167,0.468,4.347
	c0.021,24.159,0.056,48.319-0.001,72.478c-0.028,12.162-7.753,20.055-20.009,20.093c-35.822,0.109-71.645,0.114-107.466-0.005
	c-12.069-0.04-19.765-7.72-19.804-19.703c-0.111-33.99-0.111-67.98,0.003-101.97C31.453,8.108,38.635,0.234,49.835,0.151
	c35.321-0.26,70.645-0.104,105.967-0.09C156.262,0.061,156.724,0.304,158.374,0.769 M101.588,109.209
	c1.343-1.173,1.868-1.58,2.333-2.046c27.465-27.454,54.926-54.912,82.376-82.38c0.938-0.939,1.888-1.912,2.608-3.015
	c2.687-4.114,2.895-8.503,0.671-12.805c-2.254-4.36-6.174-7.144-10.959-6.278c-3.651,0.659-7.664,2.522-10.297,5.096
	c-20.972,20.508-41.649,41.315-62.426,62.022c-1.261,1.257-2.593,2.442-4.325,4.068c-7.566-7.69-14.798-15.28-22.304-22.587
	c-5.209-5.07-12.668-4.919-17.522-0.096c-4.646,4.617-5.099,12.253-0.347,17.18C74.572,82.029,88.006,95.443,101.588,109.209
	 M31.451,0.007c-3.3,0-6.601-0.02-9.9,0.003C7.329,0.11,0.066,7.363,0.035,21.603c-0.039,17.98-0.011,35.961-0.01,53.941
	c0.001,15.149-0.074,30.301,0.032,45.449c0.071,10.019,5.331,17.724,13.977,19.369c5.812,1.107,11.887,0.837,17.845,1.184
	c-10.102-5.276-13.25-13.292-13.157-23.848c0.282-31.796,0.221-63.597,0.032-95.395C18.695,12.322,22.063,4.854,31.451,0.007"/>
</svg>
