<?xml version="1.0" encoding="utf-8"?>
<!-- Generator: Adobe Illustrator 16.0.0, SVG Export Plug-In . SVG Version: 6.00 Build 0)  -->
<!DOCTYPE svg PUBLIC "-//W3C//DTD SVG 1.1//EN" "http://www.w3.org/Graphics/SVG/1.1/DTD/svg11.dtd">
<svg version="1.1" id="Layer_1" xmlns="http://www.w3.org/2000/svg" xmlns:xlink="http://www.w3.org/1999/xlink" x="0px" y="0px"
	 width="191.097px" height="141.546px" viewBox="0 0 191.097 141.546" enable-background="new 0 0 191.097 141.546"
	 xml:space="preserve">
<g>
	<path fill="#666666" d="M135.874,142.439H61.715v-10.465h23.75v-15.526c-0.475,0-0.884,0-1.294,0
		c-16.967-0.007-33.936-0.009-50.903-0.027c-3.605-0.005-7.211-0.124-10.817-0.105c-3.486,0.015-6.232-1.42-8.357-4.065
		c-1.324-1.647-2.143-3.455-2.116-5.706c0.085-7.137,0.003-14.276-0.021-21.412c-0.001-0.524-0.061-1.048-0.093-1.572V18.157
		c0.041-0.376,0.1-0.752,0.117-1.13c0.089-1.907,0.207-3.813,0.24-5.722c0.046-2.62,1.197-4.688,3.137-6.354
		c1.86-1.596,3.969-2.593,6.505-2.608c6.326-0.038,12.653-0.18,18.979-0.188c25.103-0.028,50.205-0.031,75.308-0.024
		c20.135,0.005,40.271,0.038,60.404,0.065c0.379,0,0.802-0.012,1.128,0.141c1.174,0.549,2.399,1.046,3.452,1.781
		c2.235,1.561,4.014,3.484,4.136,6.421c0.14,3.375,0.397,6.748,0.396,10.123c-0.005,28.499-0.072,56.997-0.057,85.495
		c0,1.854-0.426,3.442-1.374,4.974c-1.313,2.119-3.041,3.812-5.437,4.563c-1.381,0.433-2.897,0.581-4.356,0.604
		c-6.533,0.101-13.067,0.135-19.602,0.145c-13.838,0.018-27.675,0.005-41.512,0.005h-1.221v15.563h23.766V142.439z M98.873,7.587
		V7.548c-12.211,0-24.423-0.024-36.633,0.006C48.847,7.587,35.454,7.663,22.061,7.735c-2.525,0.014-4.404,1.834-4.498,4.343
		c-0.096,2.554-0.188,5.11-0.191,7.665c-0.028,25.148-0.046,50.297-0.041,75.445c0,3.788,0.1,7.576,0.223,11.364
		c0.08,2.45,1.704,4.021,4.153,4.166c1.15,0.069,2.302,0.147,3.454,0.156c9.165,0.065,18.33,0.16,27.494,0.164
		c40.743,0.02,81.485,0.007,122.229,0.04c1.378,0,2.48-0.44,3.443-1.297c1.02-0.907,1.977-1.931,1.974-3.398
		c-0.048-27.909-0.104-55.819-0.185-83.729c-0.01-3.67-0.13-7.342-0.252-11.011c-0.07-2.124-2.158-4.056-4.27-4.056H98.873z
		 M106.528,119.208h-15.5v12.395h15.5V119.208z"/>
	<path fill="#666666" d="M21.712,12.564h154.131v93.342H21.712V12.564z M169.743,17.949H27.878v82.494h141.865V17.949z"/>
	<path fill="#666666" d="M134.292,59.289c-1.934-0.782-3.645-1.489-5.367-2.168c-5.401-2.127-10.8-4.269-16.224-6.344
		c-1.084-0.415-1.625-1.011-1.61-2.169c0.025-2.054-0.012-4.109,0.005-6.164c0.003-0.391,0.137-0.78,0.232-1.286
		c0.79,0.309,1.476,0.555,2.145,0.839c10.109,4.32,20.215,8.649,30.332,12.956c0.519,0.221,0.714,0.488,0.718,1.034
		c0.016,2.232,0.045,4.464,0.121,6.694c0.021,0.582-0.292,0.751-0.721,0.935c-7.964,3.414-15.926,6.833-23.889,10.25
		c-2.572,1.104-5.147,2.205-7.724,3.303c-0.32,0.136-0.652,0.245-1.11,0.417c-0.052-0.933-0.141-1.773-0.133-2.613
		c0.016-1.938,0.107-3.875,0.104-5.813c-0.002-0.637,0.227-0.904,0.808-1.129c7.063-2.74,14.113-5.508,21.167-8.27
		C133.445,59.643,133.741,59.516,134.292,59.289"/>
	<path fill="#666666" d="M85.751,41.019c0,2.952-0.007,5.767,0.005,8.581c0.002,0.568-0.301,0.815-0.791,1.002
		c-4.6,1.754-9.194,3.524-13.79,5.289c-2.639,1.013-5.279,2.026-8.173,3.137c0.552,0.259,0.892,0.439,1.247,0.582
		c6.921,2.776,13.84,5.558,20.773,8.306c0.647,0.257,0.89,0.553,0.871,1.265c-0.061,2.318-0.031,4.639-0.052,6.959
		c-0.004,0.399-0.085,0.799-0.146,1.334c-0.413-0.149-0.708-0.24-0.989-0.361C74.281,72.624,63.861,68.13,53.43,63.657
		c-0.594-0.254-0.853-0.539-0.837-1.217c0.047-2.172,0.028-4.346,0.01-6.52c-0.004-0.488,0.097-0.787,0.609-1.005
		c10.681-4.56,21.354-9.142,32.028-13.717C85.344,41.153,85.453,41.122,85.751,41.019"/>
	<path fill="#666666" d="M95.888,84.019h-6.875c0.445-1.895,0.866-3.743,1.313-5.585c3.472-14.312,6.96-28.621,10.403-42.94
		c0.227-0.945,0.603-1.353,1.58-1.329c1.564,0.038,3.13,0.003,4.696-0.017c0.753-0.009,0.967,0.277,0.781,1.029
		c-2.272,9.261-4.525,18.525-6.776,27.792c-1.629,6.699-3.248,13.401-4.872,20.101C96.063,83.378,95.977,83.687,95.888,84.019"/>
</g>
</svg>
