<?xml version="1.0" encoding="utf-8"?>
<!-- Generator: Adobe Illustrator 16.0.0, SVG Export Plug-In . SVG Version: 6.00 Build 0)  -->
<!DOCTYPE svg PUBLIC "-//W3C//DTD SVG 1.1//EN" "http://www.w3.org/Graphics/SVG/1.1/DTD/svg11.dtd">
<svg version="1.1" id="Layer_1" xmlns="http://www.w3.org/2000/svg" xmlns:xlink="http://www.w3.org/1999/xlink" x="0px" y="0px"
	 width="191.097px" height="141.546px" viewBox="0 0 191.097 141.546" enable-background="new 0 0 191.097 141.546"
	 xml:space="preserve">
<g>
	<defs>
		<rect id="SVGID_1_" x="27.649" y="2.879" width="135.797" height="135.788"/>
	</defs>
	<clipPath id="SVGID_2_">
		<use xlink:href="#SVGID_1_"  overflow="visible"/>
	</clipPath>
	<path clip-path="url(#SVGID_2_)" fill="#666666" d="M95.595,138.667c-20.444,0-40.889,0.001-61.333-0.001
		c-4.433,0-6.612-2.186-6.612-6.633c-0.001-19.662,0-39.323,0-58.985c0-21.121-0.001-42.241,0-63.361
		c0-4.682,2.108-6.808,6.748-6.808c40.783,0,81.566,0,122.35,0c4.536,0,6.697,2.162,6.697,6.704
		c0.001,40.784,0.001,81.568,0,122.352c0,4.559-2.154,6.73-6.675,6.73C136.379,138.668,115.986,138.667,95.595,138.667
		 M98.445,67.86h59.234V8.613H98.445V67.86z M92.626,73.727H33.401v59.221h59.226V73.727z M33.421,67.855h59.183V8.569H33.421
		V67.855z M157.681,73.687H98.486v59.285h59.194V73.687z"/>
	<path clip-path="url(#SVGID_2_)" fill="#666666" d="M129.321,33.985c4.431,0,8.861-0.006,13.291,0.007
		c0.621,0.001,1.267,0.008,1.858,0.169c1.312,0.36,2.012,1.333,2.02,2.65c0.008,1.319-0.688,2.291-1.992,2.671
		c-0.538,0.157-1.132,0.167-1.7,0.167c-9.121,0.013-18.242,0.015-27.364,0.014c-2.015,0-3.254-1.038-3.309-2.745
		c-0.057-1.779,1.179-2.917,3.28-2.928C120.044,33.97,124.684,33.985,129.321,33.985"/>
	<path clip-path="url(#SVGID_2_)" fill="#666666" d="M64.266,100.967c2.868-2.886,5.34-5.5,7.973-7.941
		c0.708-0.656,1.952-1.203,2.859-1.087c2.287,0.295,2.95,3.051,1.242,4.82c-2.171,2.251-4.403,4.445-6.63,6.643
		c-0.404,0.4-0.906,0.701-1.498,1.149c2.835,2.828,5.431,5.377,7.969,7.981c0.522,0.535,1.028,1.227,1.202,1.93
		c0.318,1.288-0.202,2.376-1.429,2.987c-1.204,0.6-2.341,0.406-3.297-0.541c-2.333-2.313-4.661-4.63-6.956-6.98
		c-0.392-0.401-0.605-0.979-0.974-1.598c-3.111,3.133-5.787,5.834-8.472,8.527c-1,1.004-2.174,1.217-3.423,0.553
		c-1.206-0.641-1.686-1.747-1.358-3.03c0.167-0.656,0.659-1.292,1.15-1.793c2.55-2.604,5.148-5.164,7.869-7.878
		c-1.721-1.706-3.375-3.344-5.025-4.986c-1.034-1.029-2.099-2.032-3.082-3.11c-1.104-1.209-1.047-2.856,0.044-3.938
		c1.146-1.135,2.654-1.186,3.903,0.018c2.292,2.205,4.523,4.472,6.758,6.734C63.493,99.831,63.792,100.336,64.266,100.967"/>
	<path clip-path="url(#SVGID_2_)" fill="#666666" d="M61.607,33.984c0-2.818-0.001-5.464,0-8.11c0.001-1.042-0.033-2.087,0.02-3.127
		c0.089-1.776,1.206-2.94,2.786-2.977c1.554-0.036,2.789,1.13,2.834,2.912c0.077,3.074,0.029,6.151,0.034,9.227
		c0,0.616,0,1.231,0,2.075c1.424,0,2.705-0.001,3.988,0c2.398,0.003,4.797-0.042,7.194,0.028c1.795,0.052,2.958,1.21,2.98,2.775
		c0.023,1.619-1.201,2.822-3.061,2.852c-3.075,0.049-6.152,0.016-9.228,0.017c-0.558,0-1.118,0-1.874,0
		c0,3.285,0.001,6.396-0.002,9.508c0,0.677,0.033,1.36-0.047,2.03c-0.187,1.57-1.345,2.641-2.787,2.649
		c-1.505,0.009-2.756-1.127-2.797-2.777c-0.078-3.126-0.034-6.255-0.041-9.383c-0.001-0.615,0-1.229,0-2.027
		c-3.245,0-6.31,0.001-9.375-0.001c-0.729,0-1.464,0.037-2.188-0.029c-1.603-0.145-2.649-1.229-2.694-2.716
		c-0.046-1.553,1-2.795,2.679-2.87c2.445-0.109,4.898-0.048,7.349-0.056C58.724,33.981,60.069,33.984,61.607,33.984"/>
	<path clip-path="url(#SVGID_2_)" fill="#666666" d="M129.35,99.041c-4.587,0-9.174,0.004-13.761,0
		c-2.258-0.003-3.504-1.044-3.464-2.879c0.038-1.75,1.283-2.774,3.44-2.776c9.173-0.008,18.347-0.015,27.52,0.003
		c2.603,0.005,4.124,1.991,3.138,4.032c-0.628,1.3-1.761,1.635-3.114,1.628C138.522,99.024,133.936,99.04,129.35,99.041"/>
	<path clip-path="url(#SVGID_2_)" fill="#666666" d="M129.302,110.379c4.379,0,8.757-0.003,13.136,0.003
		c0.571,0.001,1.152-0.006,1.714,0.087c1.427,0.235,2.226,1.174,2.328,2.551c0.103,1.39-0.597,2.426-1.967,2.831
		c-0.634,0.188-1.335,0.209-2.005,0.21c-8.861,0.013-17.723,0.01-26.584,0.006c-0.468,0-0.944,0.018-1.401-0.064
		c-1.527-0.275-2.49-1.504-2.396-2.994c0.091-1.419,1.124-2.501,2.634-2.593c1.351-0.082,2.709-0.035,4.064-0.036
		C122.317,110.376,125.81,110.379,129.302,110.379"/>
</g>
</svg>
