<?xml version="1.0" encoding="utf-8"?>
<!-- Generator: Adobe Illustrator 16.0.0, SVG Export Plug-In . SVG Version: 6.00 Build 0)  -->
<!DOCTYPE svg PUBLIC "-//W3C//DTD SVG 1.1//EN" "http://www.w3.org/Graphics/SVG/1.1/DTD/svg11.dtd">
<svg version="1.1" id="Layer_1" xmlns="http://www.w3.org/2000/svg" xmlns:xlink="http://www.w3.org/1999/xlink" x="0px" y="0px"
	 width="191.097px" height="141.546px" viewBox="0 0 191.097 141.546" enable-background="new 0 0 191.097 141.546"
	 xml:space="preserve">
<g>
	<defs>
		<rect id="SVGID_1_" x="28.596" y="4.046" width="133.906" height="133.454"/>
	</defs>
	<clipPath id="SVGID_2_">
		<use xlink:href="#SVGID_1_"  overflow="visible"/>
	</clipPath>
	<path clip-path="url(#SVGID_2_)" fill="#666666" d="M158.735,112.334c0.901-1.009,1.802-2.016,2.702-3.024
		c0.128,0.072,0.257,0.146,0.385,0.218c-0.457,1.063-0.914,2.125-1.442,3.354c0.783-0.57,1.452-1.056,2.122-1.543
		c-0.371,2.064-1.861,3.229-3.354,4.416c0.913,0.128,1.736,0.243,2.56,0.358c0.011,0.158,0.021,0.316,0.029,0.473
		c-1.366,0.263-2.726,0.605-4.104,0.77c-1.424,0.171-2.867,0.169-4.559,0.257c0.445,0.462,0.78,0.818,1.127,1.165
		c4.128,4.155,3.833,9.327-0.788,12.91c-3.382,2.624-7.402,3.697-11.501,4.499c-7.926,1.55-15.931,1.563-23.93,0.896
		c-7.145-0.597-14.263-1.541-21.409-2.131c-2.099-0.173-4.259,0.297-6.383,0.554c-9.344,1.133-18.704,2.084-28.131,1.937
		c-6.235-0.097-12.435-0.652-18.317-2.884c-2.135-0.813-4.262-1.906-6.062-3.303c-4.046-3.135-4.315-8.013-0.92-11.86
		c0.48-0.545,0.969-1.077,1.459-1.622c-2.898-0.344-5.671-0.676-8.443-1.007c0-0.203,0-0.41,0-0.613
		c0.812-0.124,1.623-0.246,2.382-0.359c-1.166-1.311-2.363-2.654-3.562-4.001l0.396-0.432c0.7,0.502,1.401,1.004,2.253,1.615
		c-0.55-1.237-1.031-2.316-1.511-3.396c0.133-0.099,0.265-0.199,0.396-0.298c0.932,1.039,1.866,2.076,2.798,3.114
		c0.056-0.04,0.109-0.081,0.165-0.121c-0.284-0.834-0.684-1.646-0.829-2.504c-0.25-1.466,0.059-1.806,1.556-1.859
		c3.106-0.111,6.213-0.256,9.319-0.232c1.822,0.013,3.091-0.687,4.021-2.189c0.69-1.115,1.466-2.18,2.123-3.314
		c2.689-4.655,6.357-8.433,10.539-11.734c2.303-1.819,3.945-4.119,4.896-6.84c2.278-6.516,4.433-13.077,6.64-19.618
		c0.531-1.575,1.055-3.153,1.625-4.713c1.296-3.533,3.756-5.821,7.385-6.864c1.594-0.458,3.198-0.909,4.753-1.482
		c2.584-0.953,4.324-2.772,5.049-5.449c0.103-0.379-0.104-1.049-0.402-1.298c-2.565-2.134-4.275-4.837-5.434-7.917
		c-0.273-0.724-0.622-1.196-1.406-1.526c-2.464-1.032-3.604-4.549-2.14-6.384c0.237-0.296,0.299-0.809,0.286-1.216
		c-0.231-6.902,2.307-12.35,8.309-16.019c0.244-0.149,0.511-0.512,0.509-0.772c-0.037-4.364,2.642-6.796,6.921-6.208
		c3.095,0.426,5.513,2.931,4.928,5.957c-0.063,0.323,0.25,0.894,0.554,1.083c5.734,3.564,8.263,8.798,8.2,15.441
		c-0.007,0.692,0.179,1.451,0.495,2.066c1.072,2.089-0.086,5-2.459,6.165c-0.479,0.235-0.984,0.708-1.18,1.192
		c-1.279,3.171-2.953,6.037-5.664,8.23c-0.301,0.241-0.41,1.026-0.272,1.449c0.787,2.417,2.369,4.17,4.766,5.083
		c1.385,0.528,2.798,1.046,4.245,1.345c4.465,0.919,7.09,3.796,8.477,7.914c1.702,5.052,3.254,10.156,4.888,15.233
		c0.534,1.665,1.173,3.298,1.671,4.974c1.501,5.035,4.424,9.009,8.607,12.181c3.277,2.484,5.703,5.77,7.884,9.234
		c0.861,1.368,1.798,2.69,2.653,4.065c0.785,1.259,1.864,1.87,3.359,1.883c3.106,0.025,6.211,0.139,9.315,0.167
		c1.903,0.019,2.338,0.466,1.965,2.359c-0.139,0.701-0.454,1.37-0.689,2.054C158.615,112.248,158.676,112.291,158.735,112.334
		 M111.815,73.159c-0.165,0.374-0.262,0.515-0.289,0.667c-0.772,4.118-1.645,8.22-2.271,12.36c-0.48,3.181-0.321,6.401,0.921,9.424
		c1.644,4.001,3.397,7.96,5.191,11.893c0.237,0.521,0.947,1.043,1.52,1.161c2.183,0.44,4.393,0.773,6.604,1.043
		c6.511,0.795,13.051,1.399,19.389,3.221c0.251,0.075,0.522,0.077,1.164,0.163c-0.635-0.512-0.944-0.809-1.298-1.039
		c-6.706-4.396-12.472-9.886-17.994-15.631c-1.991-2.071-3.881-4.299-5.464-6.688c-3.027-4.576-5.044-9.665-6.795-14.853
		C112.319,74.366,112.097,73.87,111.815,73.159 M79.907,73.589c-0.124,0.019-0.249,0.036-0.374,0.053
		c-0.306,0.906-0.586,1.823-0.92,2.722c-2.563,6.869-5.526,13.497-10.715,18.898c-5.77,6.007-11.716,11.801-18.647,16.488
		c-0.513,0.349-0.997,0.735-1.703,1.262c3.558-0.706,6.789-1.462,10.059-1.963c5.619-0.861,11.26-1.581,16.897-2.308
		c0.873-0.111,1.271-0.518,1.591-1.278c0.611-1.449,1.373-2.835,1.988-4.281c3.061-7.203,5.495-14.507,3.495-22.501
		C80.989,78.325,80.463,75.952,79.907,73.589 M33.419,108.965c-0.035,1.888,1.296,3.117,3.162,2.646
		c0.448-0.111,0.787-0.654,1.175-1.003c-0.392-0.312-0.74-0.767-1.187-0.91C35.568,109.378,34.518,109.211,33.419,108.965
		 M158.259,108.839c-0.77,0.192-1.483,0.336-2.173,0.556c-0.564,0.182-1.156,0.383-1.628,0.725c-0.252,0.182-0.441,0.733-0.35,1.018
		c0.082,0.259,0.569,0.498,0.907,0.547C156.821,111.94,158.122,110.771,158.259,108.839"/>
</g>
</svg>
